<svg width="1266" height="133" viewBox="0 0 1266 133" fill="none" xmlns="http://www.w3.org/2000/svg">
<g filter="url(#filter0_b_204_57)">
<rect width="1266" height="133" rx="15" fill="#16191F"/>
</g>
<g clip-path="url(#clip0_204_57)">
<path d="M78.532 44.6085C78.86 44.6085 79.024 44.7694 79.352 44.9302C77.384 45.7344 75.416 47.8253 74.432 52.3288L70.824 53.2939C71.972 50.0771 74.268 44.6085 78.532 44.6085V44.6085ZM80.336 46.2169C80.664 47.182 80.992 48.3078 80.992 50.0771V50.3988L76.236 51.6855C77.22 48.3078 78.86 46.8603 80.336 46.2169V46.2169ZM84.6 49.112L82.468 49.7554V49.2729C82.468 47.8253 82.304 46.6995 81.976 45.7344C83.124 46.0561 84.108 47.5036 84.6 49.112ZM95.26 51.6855C95.26 51.5246 95.096 51.3638 94.932 51.3638C94.604 51.3638 91.16 51.0421 91.16 51.0421C91.16 51.0421 88.7 48.6295 88.372 48.4687C88.044 48.147 87.552 48.3078 87.388 48.3078C87.388 48.3078 86.896 48.4687 86.076 48.7904C85.256 46.5386 83.78 44.4477 81.32 44.4477H81.156C80.5 43.4827 79.516 43.161 78.696 43.161C72.792 43.0002 70.004 50.2379 69.02 53.9372C67.708 54.2589 66.396 54.7414 64.92 55.2239C63.608 55.5456 63.608 55.7065 63.444 56.8323C63.28 57.6365 60 83.0491 60 83.0491L86.076 87.8743L100.18 84.8184C100.18 84.8184 95.26 52.0072 95.26 51.6855V51.6855Z" fill="#8DB849"/>
<path d="M94.7677 51.364C94.6037 51.364 91.1597 51.0423 91.1597 51.0423C91.1597 51.0423 88.6997 48.6298 88.3717 48.4689C88.2077 48.3081 88.2077 48.3081 88.0437 48.3081L86.0757 87.8745L100.18 84.8186C100.18 84.8186 95.2597 52.0074 95.2597 51.6857C95.2597 51.5249 94.9317 51.364 94.7677 51.364V51.364Z" fill="#5A863E"/>
<path d="M81.3196 59.084L79.5156 64.231C79.5156 64.231 78.0396 63.4268 76.0716 63.4268C73.2836 63.4268 73.1196 65.0352 73.1196 65.5176C73.1196 67.7694 79.3516 68.7344 79.3516 74.203C79.3516 78.5456 76.5636 81.2798 72.7916 81.2798C68.3636 81.2798 66.0676 78.5456 66.0676 78.5456L67.2156 74.6855C67.2156 74.6855 69.5116 76.6155 71.4796 76.6155C72.7916 76.6155 73.2836 75.6505 73.2836 74.8463C73.2836 71.7904 68.1996 71.6295 68.1996 66.6435C68.1996 62.4617 71.3156 58.4407 77.3836 58.4407C80.1716 58.2798 81.3196 59.084 81.3196 59.084V59.084Z" fill="#FFFFFE"/>
<path d="M116.744 68.5735C115.268 67.7693 114.612 67.126 114.612 66.3218C114.612 65.1959 115.596 64.5525 117.236 64.5525C119.04 64.5525 120.68 65.3567 120.68 65.3567L121.992 61.4966C121.992 61.4966 120.844 60.5315 117.4 60.5315C112.48 60.5315 109.2 63.2659 109.2 67.126C109.2 69.3777 110.84 70.9861 112.808 72.112C114.448 73.077 115.104 73.7204 115.104 74.6854C115.104 75.6505 114.284 76.6154 112.644 76.6154C110.348 76.6154 108.052 75.4896 108.052 75.4896L106.74 79.3498C106.74 79.3498 108.708 80.6364 112.152 80.6364C117.072 80.6364 120.68 78.2238 120.68 73.8812C120.68 71.4686 118.876 69.6995 116.744 68.5735V68.5735ZM136.588 60.3708C134.128 60.3708 132.16 61.4966 130.684 63.2659L132.816 52.3288H127.24L121.828 80.154H127.404L129.208 70.6644C129.864 67.126 131.832 64.8743 133.636 64.8743C134.948 64.8743 135.44 65.6785 135.44 66.9651C135.44 67.7693 135.44 68.5735 135.276 69.3777L133.144 80.3148H138.72L140.852 69.056C141.016 67.9302 141.18 66.4827 141.18 65.5176C141.18 62.3008 139.54 60.3708 136.588 60.3708ZM150.856 76.2938C148.888 76.2938 148.232 74.6854 148.232 72.7553C148.232 69.6994 149.872 64.5525 152.824 64.5525C154.792 64.5525 155.448 66.1609 155.448 67.7693C155.448 71.3078 153.808 76.2938 150.856 76.2938V76.2938ZM153.644 60.3708C146.92 60.3708 142.492 66.3218 142.492 72.9162C142.492 77.098 145.116 80.4756 150.2 80.4756C156.76 80.4756 161.188 74.6854 161.188 67.9302C161.188 64.0701 158.892 60.3708 153.644 60.3708V60.3708ZM170.044 76.4547C168.568 76.4547 167.748 75.6505 167.748 75.6505L168.732 70.5036C169.388 67.126 171.192 64.8743 173.16 64.8743C174.8 64.8743 175.456 66.4827 175.456 67.9302C175.292 71.4686 173.16 76.4547 170.044 76.4547ZM175.456 60.3708C171.684 60.3708 169.552 63.5875 169.552 63.5875L169.88 60.6924H164.96C164.796 62.6225 164.304 65.6785 163.812 67.9302L159.876 87.8743H165.452L166.928 79.8322H167.092C167.092 79.8322 168.24 80.4756 170.372 80.4756C176.932 80.4756 181.196 73.8812 181.196 67.2869C181.196 63.7483 179.556 60.3708 175.456 60.3708V60.3708ZM189.068 52.6504C187.264 52.6504 185.952 54.098 185.952 55.8673C185.952 57.4756 186.936 58.6015 188.576 58.6015C190.38 58.6015 191.856 57.4756 191.856 55.3847C191.856 53.7763 190.708 52.6504 189.068 52.6504V52.6504ZM181.36 80.154H186.936L190.708 60.8533H185.132L181.36 80.154ZM204.812 60.8533H200.876L201.04 59.8882C201.368 57.9582 202.516 56.3498 204.32 56.3498C205.304 56.3498 206.124 56.6714 206.124 56.6714L207.272 52.3288C207.272 52.3288 206.288 51.8463 204.32 51.8463C202.352 51.8463 200.384 52.3288 198.908 53.6155C196.94 55.2238 196.12 57.4756 195.628 59.7273L195.464 60.6924H192.84L192.02 64.8743H194.644L191.692 80.154H197.268L200.22 64.8743H203.992L204.812 60.8533V60.8533ZM218.096 60.8533C218.096 60.8533 214.652 69.3777 213.012 74.0421C212.848 72.5945 211.7 60.8533 211.7 60.8533H205.796L209.076 78.5456C209.076 78.8672 209.076 79.1889 208.912 79.5106C208.256 80.7973 207.108 81.9231 205.96 82.7273C204.976 83.5315 203.664 84.0141 202.844 84.3357L204.32 89.0001C205.468 88.8392 207.764 87.8743 209.732 86.105C212.192 83.8532 214.652 80.154 216.948 75.3288L223.672 61.0141L218.096 60.8533V60.8533Z" fill="white"/>
</g>
<path d="M368.859 54.3119H359.132C358.81 54.3117 358.498 54.4245 358.254 54.6299C358.009 54.8355 357.847 55.1201 357.797 55.4326L353.863 79.9395C353.845 80.0532 353.852 80.1694 353.884 80.2801C353.916 80.3909 353.972 80.4934 354.048 80.5808C354.124 80.6682 354.219 80.7384 354.325 80.7864C354.432 80.8344 354.548 80.8591 354.665 80.859H359.308C359.631 80.8591 359.942 80.7461 360.187 80.5404C360.432 80.3346 360.594 80.0497 360.644 79.7369L361.705 73.127C361.755 72.8144 361.916 72.5297 362.161 72.324C362.406 72.1182 362.717 72.0051 363.039 72.0048H366.118C372.525 72.0048 376.223 68.9584 377.189 62.9214C377.624 60.2804 377.207 58.2052 375.948 56.7518C374.566 55.156 372.114 54.3119 368.859 54.3119V54.3119ZM369.981 63.2624C369.449 66.6918 366.782 66.6918 364.204 66.6918H362.736L363.766 60.2874C363.796 60.0999 363.893 59.9293 364.04 59.8061C364.187 59.6828 364.373 59.6152 364.566 59.6152H365.239C366.995 59.6152 368.652 59.6152 369.509 60.5989C370.019 61.1859 370.176 62.0579 369.981 63.2624V63.2624ZM397.933 63.152H393.275C393.082 63.152 392.896 63.2198 392.749 63.343C392.602 63.4662 392.505 63.6369 392.475 63.8242L392.268 65.1043L391.943 64.6404C390.934 63.2024 388.686 62.7217 386.442 62.7217C381.295 62.7217 376.898 66.552 376.042 71.9251C375.597 74.6054 376.23 77.1683 377.777 78.9557C379.197 80.5991 381.228 81.2838 383.644 81.2838C387.791 81.2838 390.091 78.6637 390.091 78.6637L389.883 79.9354C389.865 80.049 389.872 80.1652 389.903 80.2761C389.935 80.387 389.991 80.4898 390.067 80.5775C390.143 80.6651 390.237 80.7356 390.343 80.7839C390.45 80.8324 390.566 80.8574 390.683 80.8577H394.878C395.201 80.8578 395.512 80.7447 395.757 80.539C396.002 80.3333 396.164 80.0483 396.214 79.7355L398.731 64.0716C398.75 63.9582 398.743 63.8421 398.711 63.7315C398.68 63.6209 398.624 63.5183 398.548 63.4309C398.472 63.3434 398.378 63.2732 398.272 63.225C398.166 63.177 398.05 63.152 397.933 63.152V63.152ZM391.441 72.0593C390.991 74.674 388.879 76.4291 386.186 76.4291C384.833 76.4291 383.752 76.0029 383.058 75.1952C382.37 74.393 382.108 73.2513 382.327 71.9797C382.747 69.3874 384.894 67.5749 387.547 67.5749C388.869 67.5749 389.945 68.0067 390.653 68.8215C391.363 69.6446 391.644 70.7933 391.441 72.0593V72.0593ZM422.74 63.152H418.059C417.838 63.1524 417.621 63.2057 417.426 63.3073C417.231 63.4088 417.064 63.5556 416.94 63.7348L410.484 73.078L407.748 64.0995C407.664 63.8257 407.492 63.5857 407.259 63.415C407.025 63.2444 406.742 63.1523 406.451 63.152H401.851C401.722 63.1518 401.595 63.1817 401.48 63.2395C401.365 63.2973 401.266 63.3812 401.191 63.4843C401.115 63.5873 401.066 63.7066 401.047 63.832C401.028 63.9576 401.04 64.0857 401.082 64.2058L406.238 79.0717L401.391 85.7947C401.304 85.914 401.253 86.0542 401.243 86.2C401.233 86.3458 401.263 86.4916 401.331 86.6216C401.4 86.7514 401.503 86.8603 401.63 86.9363C401.757 87.0123 401.903 87.0525 402.052 87.0525H406.727C406.945 87.0527 407.16 87.0011 407.354 86.9017C407.547 86.8025 407.713 86.6585 407.838 86.4823L423.405 64.4028C423.489 64.2833 423.539 64.1434 423.548 63.9983C423.558 63.8532 423.526 63.7084 423.458 63.5795C423.389 63.4507 423.286 63.3427 423.159 63.2674C423.033 63.192 422.887 63.1521 422.74 63.152V63.152Z" fill="#253B80"/>
<path d="M438.236 54.3122H428.509C428.187 54.3123 427.875 54.4252 427.631 54.6307C427.387 54.8361 427.225 55.1206 427.174 55.4329L423.24 79.9397C423.222 80.0532 423.229 80.1694 423.261 80.28C423.293 80.3906 423.348 80.4931 423.425 80.5805C423.501 80.6679 423.595 80.738 423.701 80.7862C423.807 80.8343 423.922 80.8593 424.039 80.8593H429.032C429.257 80.8589 429.475 80.7797 429.646 80.6357C429.817 80.4917 429.93 80.2925 429.964 80.0739L431.082 73.1272C431.131 72.8147 431.292 72.5299 431.538 72.3242C431.782 72.1185 432.094 72.0053 432.416 72.0051H435.493C441.901 72.0051 445.598 68.9587 446.565 62.9218C447.002 60.2806 446.582 58.2054 445.324 56.752C443.942 55.1562 441.492 54.3122 438.236 54.3122V54.3122ZM439.358 63.2628C438.828 66.6921 436.161 66.6921 433.582 66.6921H432.116L433.146 60.2876C433.176 60.1003 433.272 59.9294 433.419 59.8061C433.565 59.6828 433.753 59.6152 433.945 59.6154H434.618C436.373 59.6154 438.031 59.6154 438.888 60.5992C439.399 61.1861 439.554 62.0581 439.358 63.2628ZM467.31 63.1524H462.655C462.462 63.1518 462.274 63.2194 462.128 63.3427C461.981 63.4661 461.885 63.637 461.855 63.8245L461.649 65.1046L461.322 64.6406C460.314 63.2026 458.066 62.7219 455.822 62.7219C450.676 62.7219 446.28 66.5523 445.425 71.9255C444.981 74.6057 445.611 77.1687 447.158 78.9559C448.58 80.5994 450.608 81.2841 453.025 81.2841C457.173 81.2841 459.472 78.6639 459.472 78.6639L459.264 79.9356C459.245 80.0494 459.252 80.166 459.285 80.277C459.316 80.3881 459.373 80.491 459.448 80.5788C459.524 80.6665 459.619 80.7369 459.726 80.7851C459.832 80.8333 459.949 80.8581 460.066 80.8579H464.26C464.582 80.8576 464.893 80.7445 465.138 80.5388C465.383 80.333 465.544 80.0483 465.594 79.7357L468.113 64.0719C468.131 63.9581 468.124 63.8418 468.091 63.731C468.059 63.6204 468.003 63.5178 467.927 63.4304C467.851 63.3431 467.756 63.273 467.649 63.225C467.543 63.177 467.427 63.1522 467.31 63.1524V63.1524ZM460.818 72.0596C460.371 74.6742 458.255 76.4293 455.562 76.4293C454.212 76.4293 453.129 76.0032 452.434 75.1954C451.747 74.3933 451.487 73.2517 451.704 71.98C452.126 69.3877 454.271 67.5753 456.924 67.5753C458.246 67.5753 459.32 68.0071 460.029 68.8217C460.742 69.6448 461.024 70.7935 460.818 72.0596V72.0596ZM472.801 54.9844L468.808 79.9397C468.791 80.0532 468.798 80.1694 468.829 80.28C468.86 80.3906 468.917 80.4931 468.992 80.5805C469.069 80.6679 469.163 80.738 469.269 80.7862C469.376 80.8343 469.491 80.8593 469.608 80.8593H473.622C474.289 80.8593 474.855 80.3841 474.957 79.7371L478.893 55.2316C478.912 55.1181 478.905 55.002 478.874 54.8912C478.841 54.7806 478.786 54.6779 478.709 54.5904C478.634 54.503 478.539 54.4326 478.434 54.3843C478.327 54.3361 478.211 54.311 478.095 54.3108H473.6C473.407 54.3114 473.221 54.3796 473.074 54.503C472.928 54.6264 472.831 54.797 472.801 54.9844V54.9844Z" fill="#179BD7"/>
<path d="M313.47 85.6218L314.214 80.9794L312.557 80.9417H304.645L310.144 46.6864C310.16 46.5817 310.214 46.4863 310.296 46.4176C310.378 46.3488 310.482 46.3113 310.59 46.3119H323.931C328.359 46.3119 331.416 47.2174 333.012 49.0047C333.76 49.8432 334.236 50.7194 334.466 51.6836C334.708 52.6954 334.713 53.9041 334.476 55.3785L334.459 55.486V56.4307L335.207 56.8471C335.779 57.1314 336.292 57.516 336.722 57.9818C337.362 58.6988 337.776 59.6099 337.951 60.6901C338.132 61.801 338.072 63.123 337.776 64.6196C337.435 66.3413 336.883 67.8408 336.138 69.0677C335.48 70.1669 334.596 71.1189 333.542 71.8626C332.552 72.5529 331.376 73.077 330.046 73.4123C328.758 73.7421 327.288 73.9084 325.677 73.9084H324.639C323.897 73.9084 323.175 74.1712 322.609 74.6421C322.044 75.1181 321.669 75.7757 321.551 76.4979L321.473 76.9157L320.159 85.0977L320.099 85.3982C320.083 85.4932 320.056 85.5407 320.017 85.5729C319.978 85.6038 319.93 85.6211 319.88 85.6218H313.47Z" fill="#253B80"/>
<path d="M335.916 55.5949C335.876 55.8451 335.83 56.1008 335.779 56.3636C334.02 65.2387 328.001 68.3046 320.314 68.3046H316.4C315.46 68.3046 314.668 68.9754 314.521 69.8865L312.517 82.374L311.95 85.9137C311.927 86.0542 311.936 86.1977 311.975 86.3345C312.014 86.4714 312.083 86.5981 312.177 86.7063C312.271 86.8144 312.388 86.9012 312.519 86.9607C312.651 87.0203 312.794 87.0512 312.938 87.0512H319.88C320.702 87.0512 321.4 86.4644 321.53 85.6678L321.598 85.3213L322.905 77.1714L322.989 76.7242C323.117 75.9248 323.817 75.338 324.639 75.338H325.677C332.403 75.338 337.668 72.6548 339.207 64.8907C339.85 61.6472 339.517 58.939 337.816 57.0344C337.277 56.4451 336.633 55.9574 335.916 55.5949V55.5949Z" fill="#179BD7"/>
<path d="M334.075 54.8739C333.514 54.7142 332.942 54.5896 332.365 54.5008C331.223 54.3284 330.069 54.2457 328.914 54.2534H318.458C318.06 54.2531 317.675 54.3927 317.373 54.647C317.07 54.9012 316.871 55.2534 316.81 55.6396L314.585 69.4827L314.521 69.8865C314.591 69.4459 314.818 69.044 315.163 68.7539C315.507 68.4638 315.946 68.3044 316.4 68.3046H320.314C328.001 68.3046 334.02 65.2373 335.779 56.3636C335.832 56.1008 335.876 55.8452 335.916 55.5949C335.452 55.3557 334.968 55.1553 334.469 54.9954C334.339 54.9529 334.207 54.9124 334.075 54.8739V54.8739Z" fill="#222D65"/>
<path d="M316.808 55.6394C316.869 55.2529 317.068 54.9007 317.371 54.6465C317.673 54.3924 318.059 54.2534 318.457 54.2546H328.913C330.151 54.2546 331.308 54.3342 332.363 54.5019C333.077 54.6121 333.781 54.7772 334.469 54.9952C334.988 55.1643 335.471 55.3641 335.916 55.5947C336.439 52.3149 335.912 50.0818 334.107 48.0597C332.117 45.8336 328.526 44.8806 323.931 44.8806H310.59C309.652 44.8806 308.851 45.5513 308.706 46.4639L303.149 81.0713C303.123 81.2321 303.133 81.3963 303.178 81.553C303.223 81.7095 303.302 81.8546 303.409 81.9785C303.517 82.1022 303.65 82.2016 303.8 82.2699C303.951 82.3381 304.114 82.3736 304.28 82.3738H312.516L314.584 69.4824L316.808 55.6394V55.6394Z" fill="#253B80"/>
<path d="M566.801 60.9465C566.801 59.7545 567.787 59.2958 569.422 59.2958C571.765 59.2958 574.725 59.9991 577.068 61.2523V54.0685C574.509 53.0598 571.981 52.6624 569.422 52.6624C563.163 52.6624 559 55.9028 559 61.3136C559 69.7504 570.717 68.4054 570.717 72.0432C570.717 73.4492 569.483 73.9078 567.757 73.9078C565.198 73.9078 561.929 72.8684 559.339 71.4623V78.7377C562.207 79.9605 565.105 80.48 567.757 80.48C574.17 80.48 578.579 77.3316 578.579 71.8597C578.548 62.7502 566.801 64.3702 566.801 60.9465V60.9465ZM587.644 46.5487L580.121 48.1382L580.09 72.6239C580.09 77.1482 583.513 80.48 588.076 80.48C590.604 80.48 592.454 80.0215 593.472 79.4713V73.2658C592.485 73.6632 587.613 75.0693 587.613 70.5451V59.6932H593.472V53.1821H587.613L587.644 46.5487V46.5487ZM603.061 55.4441L602.568 53.1821H595.908V79.9297H603.616V61.8026C605.435 59.4488 608.518 59.8767 609.474 60.213V53.1821C608.488 52.8152 604.88 52.1427 603.061 55.4441V55.4441ZM611.355 53.1821H619.094V79.9297H611.355V53.1821ZM611.355 50.8589L619.094 49.2081V43.0027L611.355 44.6229V50.8589ZM635.189 52.6624C632.167 52.6624 630.225 54.0685 629.146 55.0469L628.745 53.1516H621.962V88.7946L629.67 87.1746L629.701 78.5236C630.811 79.3185 632.445 80.4495 635.158 80.4495C640.678 80.4495 645.703 76.0475 645.703 66.3573C645.673 57.4923 640.585 52.6624 635.189 52.6624V52.6624ZM633.339 73.7243C631.52 73.7243 630.441 73.0825 629.701 72.2876L629.67 60.9465C630.472 60.0601 631.582 59.4488 633.339 59.4488C636.145 59.4488 638.088 62.5667 638.088 66.5712C638.088 70.6675 636.176 73.7243 633.339 73.7243V73.7243ZM670 66.663C670 58.8373 666.177 52.6624 658.869 52.6624C651.531 52.6624 647.091 58.8376 647.091 66.6019C647.091 75.8029 652.333 80.4495 659.856 80.4495C663.525 80.4495 666.3 79.6242 668.397 78.4625V72.3487C666.3 73.3882 663.895 74.0302 660.843 74.0302C657.852 74.0302 655.2 72.9907 654.861 69.3836H669.938C669.938 68.986 670 67.3965 670 66.663V66.663ZM654.768 63.759C654.768 60.3047 656.896 58.8678 658.838 58.8678C660.719 58.8678 662.723 60.3047 662.723 63.759H654.768Z" fill="#6772E5"/>
<path fill-rule="evenodd" clip-rule="evenodd" d="M843.19 83.7589C835.161 89.7878 823.483 92.9999 813.41 92.9999C799.298 92.9999 786.646 87.7123 777.011 78.916C776.282 78.2242 776.914 77.2853 777.839 77.8288C788.203 83.9566 801.001 87.6134 814.237 87.6134C823.142 87.6134 832.972 85.7356 842.023 81.8316C843.385 81.2881 844.504 82.7705 843.19 83.7589V83.7589Z" fill="#FF9900"/>
<path fill-rule="evenodd" clip-rule="evenodd" d="M846.548 79.8548C845.526 78.5206 839.735 79.2125 837.156 79.5584C836.378 79.6572 836.232 78.9654 836.962 78.4712C841.585 75.1602 849.127 76.1486 850.003 77.2358C850.879 78.3229 849.76 86.032 845.429 89.6889C844.748 90.2325 844.115 89.936 844.407 89.1947C845.38 86.7239 847.57 81.2386 846.548 79.8548V79.8548Z" fill="#FF9900"/>
<path fill-rule="evenodd" clip-rule="evenodd" d="M837.303 55.2453V52.0331C837.303 51.5389 837.643 51.2424 838.081 51.2424H852.193C852.631 51.2424 853.02 51.5884 853.02 52.0331V54.7511C853.02 55.1958 852.631 55.7888 851.95 56.7772L844.651 67.3525C847.376 67.303 850.247 67.6984 852.68 69.0821C853.215 69.3786 853.361 69.8727 853.41 70.3175V73.7273C853.41 74.2215 852.923 74.7651 852.388 74.4685C848.057 72.1459 842.266 71.8988 837.497 74.518C837.011 74.7651 836.476 74.2709 836.476 73.7767V70.5152C836.476 70.021 836.476 69.1315 837.011 68.3408L845.478 56.0359H838.13C837.692 56.0359 837.303 55.69 837.303 55.2453V55.2453ZM785.868 75.1603H781.586C781.197 75.111 780.856 74.8144 780.807 74.4192V52.0825C780.807 51.6378 781.197 51.2918 781.634 51.2918H785.625C786.063 51.2918 786.355 51.6378 786.403 52.0331V54.9487H786.501C787.522 52.1319 789.518 50.7977 792.145 50.7977C794.822 50.7977 796.525 52.1319 797.693 54.9487C798.714 52.1319 801.099 50.7977 803.629 50.7977C805.43 50.7977 807.376 51.5389 808.593 53.2685C809.955 55.1463 809.663 57.8643 809.663 60.2858V74.4192C809.663 74.8639 809.274 75.2098 808.836 75.2098H804.602C804.164 75.1603 803.824 74.8144 803.824 74.4192V62.5589C803.824 61.62 803.921 59.2481 803.727 58.3585C803.386 56.876 802.461 56.4313 801.196 56.4312C800.174 56.4312 799.055 57.1231 798.617 58.2597C798.179 59.3962 798.228 61.2741 798.228 62.5589V74.4192C798.228 74.8639 797.839 75.2098 797.401 75.2098H793.118C792.681 75.1603 792.34 74.8144 792.34 74.4192V62.5589C792.34 60.0881 792.729 56.3818 789.712 56.3818C786.647 56.3818 786.744 59.9399 786.744 62.5589V74.4192C786.695 74.8144 786.355 75.1603 785.868 75.1603V75.1603ZM865.186 50.7977C871.561 50.7977 875.015 56.3324 875.015 63.399C875.015 70.2187 871.219 75.6545 865.186 75.6545C858.957 75.6545 855.551 70.1198 855.551 63.2014C855.502 56.2336 858.957 50.7977 865.186 50.7977V50.7977ZM865.186 55.3934C862.023 55.3934 861.828 59.7916 861.828 62.5096C861.828 65.2275 861.779 71.0587 865.137 71.0587C868.446 71.0587 868.64 66.3641 868.64 63.498C868.64 61.6201 868.543 59.3469 868.007 57.5679C867.521 55.9865 866.548 55.3934 865.186 55.3934V55.3934ZM883.239 75.1604H878.956C878.518 75.111 878.178 74.7651 878.178 74.3697V51.9837C878.227 51.5884 878.567 51.2424 879.005 51.2424H882.996C883.385 51.2424 883.676 51.539 883.774 51.8848V55.2946H883.871C885.088 52.2308 886.743 50.7977 889.711 50.7977C891.608 50.7977 893.507 51.4895 894.723 53.4168C895.842 55.1958 895.842 58.2103 895.842 60.3846V74.4685C895.793 74.8639 895.453 75.1604 895.015 75.1604H890.733C890.344 75.111 890.002 74.8145 889.954 74.4685V62.3119C889.954 59.8411 890.246 56.283 887.277 56.283C886.255 56.283 885.282 56.9748 884.796 58.0621C884.212 59.4457 884.115 60.78 884.115 62.3119V74.3697C884.066 74.8145 883.676 75.1604 883.239 75.1604V75.1604ZM826.062 64.4862C826.062 66.1665 826.111 67.5996 825.283 69.1315C824.602 70.3669 823.532 71.1082 822.315 71.1082C820.661 71.1082 819.687 69.8233 819.687 67.9455C819.687 64.2391 822.948 63.5473 826.062 63.5473V64.4862V64.4862ZM830.393 75.111C830.101 75.3581 829.712 75.4074 829.371 75.2098C827.96 74.0238 827.668 73.4308 826.889 72.2942C824.554 74.7156 822.85 75.4569 819.833 75.4569C816.232 75.4569 813.41 73.1837 813.41 68.6868C813.41 65.1287 815.308 62.7567 817.984 61.5707C820.32 60.5329 823.58 60.3352 826.062 60.0387V59.4952C826.062 58.4573 826.159 57.2219 825.527 56.3324C824.991 55.5417 824.018 55.1958 823.142 55.1958C821.488 55.1958 820.028 56.0359 819.687 57.815C819.59 58.2102 819.347 58.6056 818.958 58.6056L814.821 58.1609C814.481 58.0621 814.091 57.815 814.189 57.2713C815.162 52.1319 819.687 50.6 823.775 50.6C825.867 50.6 828.592 51.1436 830.247 52.7744C832.339 54.7511 832.145 57.4196 832.145 60.2858V67.0559C832.145 69.0821 832.972 69.9716 833.75 71.1082C834.042 71.5036 834.091 71.9976 833.75 72.2447C832.826 72.986 831.269 74.3697 830.393 75.111V75.111ZM769.858 64.4862C769.858 66.1665 769.907 67.5996 769.08 69.1315C768.399 70.3669 767.328 71.1082 766.112 71.1082C764.457 71.1082 763.484 69.8233 763.484 67.9455C763.484 64.2391 766.744 63.5473 769.858 63.5473V64.4862ZM774.141 75.111C773.849 75.3581 773.459 75.4074 773.119 75.2098C771.708 74.0238 771.416 73.4308 770.637 72.2942C768.301 74.7156 766.598 75.4569 763.581 75.4569C759.98 75.4569 757.158 73.1837 757.158 68.6867C757.158 65.1287 759.056 62.7567 761.732 61.5707C764.068 60.5329 767.328 60.3352 769.81 60.0387V59.4951C769.81 58.4573 769.907 57.2219 769.274 56.3324C768.739 55.5417 767.766 55.1958 766.89 55.1958C765.236 55.1958 763.776 56.0359 763.435 57.815C763.338 58.2102 763.095 58.6056 762.705 58.6056L758.569 58.1609C758.228 58.0621 757.839 57.815 757.936 57.2713C758.91 52.1319 763.435 50.6 767.523 50.6C769.615 50.6 772.34 51.1436 773.995 52.7744C776.087 54.7511 775.892 57.4196 775.892 60.2858V67.0559C775.892 69.0821 776.72 69.9716 777.498 71.1082C777.79 71.5036 777.839 71.9976 777.498 72.2447C776.574 72.986 775.017 74.3697 774.141 75.111V75.111Z" fill="white"/>
<path d="M1040.12 55.0046H1049.3C1054.15 55.0046 1057.29 58.742 1057.29 63.0853C1057.29 67.4286 1054.16 71.1654 1049.3 71.1654H1045.2V77.3619H1040.12L1040.12 55.0046V55.0046ZM1052.19 63.0853C1052.19 61.0091 1050.81 59.2206 1048.68 59.2206H1045.2V66.9495H1048.67C1050.8 66.9495 1052.19 65.1616 1052.19 63.0853V63.0853ZM1076.71 77.3619L1075.86 74.6474H1068.06L1067.22 77.3619H1061.8L1069.63 55.0046H1074.3L1082.22 77.3619H1076.71ZM1071.98 61.3905L1069.28 70.5892H1074.61L1071.98 61.3905V61.3905ZM1090.74 59.4733H1085.79V55.0046H1100.79V59.4733H1095.81V77.3586H1090.74V59.4733ZM1108.69 55.0046H1117.9C1122.75 55.0046 1125.88 58.742 1125.88 63.0853C1125.88 66.2155 1124.25 68.9934 1121.53 70.3035L1125.91 77.3652H1120.02L1116.14 71.1687H1113.76V77.3652H1108.69V55.0046ZM1120.74 63.0853C1120.74 61.0091 1119.37 59.2206 1117.24 59.2206H1113.76V66.9495H1117.24C1119.36 66.9495 1120.74 65.1616 1120.74 63.0853ZM1139.57 59.1571V64.235H1147.87V68.2919H1139.57V73.2093H1147.87V77.3619H1134.49V55.0046H1147.87V59.1571H1139.57ZM1156.1 66.1835C1156.1 60.0517 1160.43 54.43 1167.73 54.43C1174.99 54.43 1179.31 60.0517 1179.31 66.1835C1179.31 72.3152 1174.99 77.937 1167.73 77.937C1160.43 77.937 1156.1 72.316 1156.1 66.1835ZM1174.15 66.1835C1174.15 62.5108 1171.7 59.0934 1167.73 59.0934C1163.72 59.0934 1161.3 62.5108 1161.3 66.1835C1161.3 69.8562 1163.72 73.2743 1167.73 73.2743C1171.7 73.2743 1174.15 69.8562 1174.15 66.1835ZM1200.96 69.5709V55.0046H1206V77.3619H1200.71L1192.81 62.989V77.3619H1187.74V55.0046H1193.03L1200.96 69.5709Z" fill="white"/>
<path fill-rule="evenodd" clip-rule="evenodd" d="M1007.88 47C1000.18 47 993.905 53.4018 993.905 61.266C993.905 69.1085 1000.17 75.4891 1007.88 75.4891C1015.57 75.4891 1021.82 69.1085 1021.82 61.266C1021.82 53.4018 1015.57 47 1007.88 47ZM983 85H989.824V47H983V85Z" fill="#FF424D"/>
<defs>
<filter id="filter0_b_204_57" x="-50" y="-50" width="1366" height="233" filterUnits="userSpaceOnUse" color-interpolation-filters="sRGB">
<feFlood flood-opacity="0" result="BackgroundImageFix"/>
<feGaussianBlur in="BackgroundImage" stdDeviation="25"/>
<feComposite in2="SourceAlpha" operator="in" result="effect1_backgroundBlur_204_57"/>
<feBlend mode="normal" in="SourceGraphic" in2="effect1_backgroundBlur_204_57" result="shape"/>
</filter>
<clipPath id="clip0_204_57">
<rect width="164" height="46" fill="white" transform="translate(60 43)"/>
</clipPath>
</defs>
</svg>
