<svg width="40" height="41" viewBox="0 0 40 41" fill="none" xmlns="http://www.w3.org/2000/svg">
<path d="M20 0.5C8.96 0.5 0 9.46 0 20.5C0 31.54 8.96 40.5 20 40.5C31.04 40.5 40 31.54 40 20.5C40 9.46 31.04 0.5 20 0.5ZM7.22 30.06C5.2 27.4 4 24.1 4 20.5C4 16.9 5.2 13.6 7.22 10.94C8.70414 12.0531 9.90874 13.4965 10.7384 15.1558C11.5681 16.8151 12 18.6448 12 20.5C12 22.3552 11.5681 24.1849 10.7384 25.8442C9.90874 27.5035 8.70414 28.9469 7.22 30.06ZM20 36.5C16.22 36.5 12.74 35.18 10 32.98C13.66 30.04 16 25.56 16 20.5C16 15.44 13.66 10.96 10 8.02C12.74 5.82 16.22 4.5 20 4.5C23.78 4.5 27.26 5.82 30 8.02C26.34 10.96 24 15.44 24 20.5C24 25.56 26.34 30.04 30 32.98C27.1665 35.2609 23.6375 36.5031 20 36.5ZM32.78 30.06C31.2959 28.9469 30.0913 27.5035 29.2616 25.8442C28.4319 24.1849 28 22.3552 28 20.5C28 18.6448 28.4319 16.8151 29.2616 15.1558C30.0913 13.4965 31.2959 12.0531 32.78 10.94C34.8 13.6 36 16.9 36 20.5C36 24.1 34.8 27.4 32.78 30.06Z" fill="white"/>
</svg>
