<svg width="40" height="41" viewBox="0 0 40 41" fill="none" xmlns="http://www.w3.org/2000/svg">
<path d="M38.3281 4.48438H29.9609V1.35938C29.9609 1.14453 29.7816 0.96875 29.5625 0.96875H26.7734C26.5543 0.96875 26.375 1.14453 26.375 1.35938V4.48438H13.625V1.35938C13.625 1.14453 13.4457 0.96875 13.2266 0.96875H10.4375C10.2184 0.96875 10.0391 1.14453 10.0391 1.35938V4.48438H1.67188C0.790332 4.48438 0.078125 5.18262 0.078125 6.04688V38.4688C0.078125 39.333 0.790332 40.0312 1.67188 40.0312H38.3281C39.2097 40.0312 39.9219 39.333 39.9219 38.4688V6.04688C39.9219 5.18262 39.2097 4.48438 38.3281 4.48438ZM36.3359 36.5156H3.66406V17.9609H36.3359V36.5156ZM3.66406 14.6406V8H10.0391V10.3438C10.0391 10.5586 10.2184 10.7344 10.4375 10.7344H13.2266C13.4457 10.7344 13.625 10.5586 13.625 10.3438V8H26.375V10.3438C26.375 10.5586 26.5543 10.7344 26.7734 10.7344H29.5625C29.7816 10.7344 29.9609 10.5586 29.9609 10.3438V8H36.3359V14.6406H3.66406Z" fill="white"/>
</svg>
