<svg width="50" height="37" viewBox="0 0 50 37" fill="none" xmlns="http://www.w3.org/2000/svg">
<path d="M9.8316 36.3439C8.96297 36.3454 8.09801 36.2313 7.2595 36.0046C4.74261 35.2868 2.60729 33.6112 1.31166 31.3371C0.0160228 29.0631 -0.336706 26.3718 0.329144 23.8407L4.49093 8.05091C4.81505 6.77303 5.39125 5.57279 6.18568 4.5207C6.98012 3.46861 7.97678 2.58587 9.11713 1.92432C10.2275 1.28121 11.4544 0.864811 12.7268 0.699244C13.9992 0.533678 15.2918 0.622236 16.5298 0.95979C17.8457 1.32522 19.0714 1.96006 20.1291 2.82406C21.1868 3.68807 22.0535 4.76239 22.6742 5.97894H27.3183C27.9363 4.76045 28.8021 3.68454 29.8602 2.82021C30.9183 1.95588 32.1454 1.32219 33.4627 0.95979C34.7006 0.622236 35.9933 0.533678 37.2657 0.699244C38.5381 0.864811 39.765 1.28121 40.8753 1.92432C42.0101 2.58417 43.0031 3.46207 43.7971 4.50743C44.5911 5.55279 45.1704 6.74494 45.5015 8.01518L49.6633 23.8407C50.3391 26.3792 49.9892 29.0817 48.6891 31.3643C47.389 33.6469 45.2432 35.3265 42.7151 36.0403C41.4771 36.3778 40.1845 36.4664 38.9121 36.3008C37.6397 36.1353 36.4128 35.7189 35.3025 35.0757C34.1658 34.4182 33.1713 33.5411 32.3771 32.4953C31.5828 31.4496 31.0047 30.2563 30.6763 28.9849L30.3547 27.413H19.6377L19.2269 28.9492C18.8985 30.2206 18.3203 31.4139 17.5261 32.4596C16.7318 33.5053 15.7374 34.3825 14.6007 35.04C13.1494 35.8771 11.5069 36.3261 9.8316 36.3439ZM13.9755 4.19277C12.8976 4.19643 11.8391 4.47952 10.9033 5.01441C9.43659 5.87495 8.37048 7.28145 7.93825 8.92613L3.77646 24.7159C3.34097 26.3427 3.56102 28.0753 4.38933 29.5416C5.21764 31.0078 6.58809 32.0906 8.20618 32.5572C8.98764 32.7704 9.80361 32.8265 10.6069 32.7222C11.4102 32.618 12.1848 32.3555 12.886 31.9499C13.616 31.5285 14.2543 30.9653 14.7635 30.2935C15.2727 29.6218 15.6425 28.855 15.851 28.0382L16.9584 23.8407H33.034L34.1236 28.0382C34.3358 28.8534 34.707 29.6186 35.2158 30.2899C35.7247 30.9612 36.3611 31.5253 37.0886 31.9499C37.7933 32.3551 38.5709 32.6173 39.377 32.7215C40.1831 32.8257 41.0018 32.7699 41.7863 32.5572C43.4063 32.0949 44.7785 31.012 45.6046 29.5438C46.4307 28.0755 46.644 26.3406 46.1981 24.7159L42.0363 8.92613C41.829 8.11127 41.4616 7.34579 40.9557 6.67424C40.4497 6.00268 39.8152 5.43846 39.0891 5.01441C38.3845 4.60924 37.6069 4.34705 36.8008 4.24284C35.9947 4.13863 35.176 4.19445 34.3915 4.40711C33.4213 4.68366 32.5312 5.1877 31.7949 5.87735C31.0587 6.56701 30.4976 7.42238 30.1583 8.37242L29.7296 9.55129H20.2629L19.8342 8.37242C19.4919 7.42111 18.9276 6.56514 18.1883 5.87552C17.449 5.1859 16.5559 4.68251 15.5831 4.40711C15.0589 4.26576 14.5184 4.1937 13.9755 4.19277Z" fill="white"/>
<path d="M14.2791 18.4819C13.5726 18.4819 12.8819 18.2723 12.2944 17.8798C11.707 17.4873 11.2491 16.9294 10.9787 16.2766C10.7083 15.6238 10.6376 14.9055 10.7754 14.2126C10.9133 13.5196 11.2535 12.8831 11.7531 12.3835C12.2527 11.8839 12.8892 11.5436 13.5822 11.4058C14.2752 11.268 14.9935 11.3387 15.6462 11.6091C16.299 11.8795 16.8569 12.3373 17.2494 12.9248C17.642 13.5123 17.8515 14.203 17.8515 14.9095C17.8515 15.857 17.4751 16.7656 16.8052 17.4355C16.1352 18.1055 15.2266 18.4819 14.2791 18.4819Z" fill="white"/>
<path d="M35.7132 13.1236C36.6997 13.1236 37.4994 12.3239 37.4994 11.3374C37.4994 10.351 36.6997 9.55127 35.7132 9.55127C34.7267 9.55127 33.927 10.351 33.927 11.3374C33.927 12.3239 34.7267 13.1236 35.7132 13.1236Z" fill="white"/>
<path d="M35.7132 20.2684C36.6997 20.2684 37.4994 19.4687 37.4994 18.4822C37.4994 17.4957 36.6997 16.696 35.7132 16.696C34.7267 16.696 33.927 17.4957 33.927 18.4822C33.927 19.4687 34.7267 20.2684 35.7132 20.2684Z" fill="white"/>
<path d="M32.1407 16.6954C33.1271 16.6954 33.9268 15.8957 33.9268 14.9092C33.9268 13.9227 33.1271 13.123 32.1407 13.123C31.1542 13.123 30.3545 13.9227 30.3545 14.9092C30.3545 15.8957 31.1542 16.6954 32.1407 16.6954Z" fill="white"/>
<path d="M39.2857 16.6954C40.2722 16.6954 41.0719 15.8957 41.0719 14.9092C41.0719 13.9227 40.2722 13.123 39.2857 13.123C38.2992 13.123 37.4995 13.9227 37.4995 14.9092C37.4995 15.8957 38.2992 16.6954 39.2857 16.6954Z" fill="white"/>
</svg>
