<svg width="54" height="51" viewBox="0 0 54 51" fill="none" xmlns="http://www.w3.org/2000/svg">
<g clip-path="url(#clip0_28_38)">
<path d="M13.5079 34.7161C13.5079 35.281 13.2796 35.793 12.8228 36.2521C12.366 36.7111 11.8566 36.9406 11.2944 36.9406C10.662 36.9406 10.1173 36.7111 9.66059 36.2521C9.20382 35.793 8.97544 35.281 8.97544 34.7161C8.97544 34.0805 9.20382 33.5331 9.66059 33.0741C10.1173 32.6151 10.662 32.3855 11.2944 32.3855C11.8566 32.3855 12.366 32.6151 12.8228 33.0741C13.2796 33.5331 13.5079 34.0805 13.5079 34.7161ZM49.4516 3.04233H20.254V3.25419C17.3026 4.03103 15.0539 5.47877 13.5079 7.59741C12.9458 7.59741 12.4714 7.22665 12.0849 6.48512C11.6985 5.7436 11.4701 4.98442 11.3998 4.20758L11.2944 3.04233H6.7619C6.7619 4.73724 7.14839 6.46747 7.92138 8.233C8.69436 9.99854 9.88897 11.1991 11.5052 11.8347C11.5052 11.9759 11.4701 12.1878 11.3998 12.4703C11.3295 12.7528 11.2944 12.9293 11.2944 13C8.06192 14.483 5.81324 16.9548 4.54836 20.4152C3.63483 22.9576 2.79158 25.7648 2.0186 28.8368C1.24561 31.9088 0.718581 34.2923 0.437496 35.9872C0.156411 37.6822 0.0158691 38.6709 0.0158691 38.9533C0.0158691 41.072 0.472632 42.661 1.38616 43.7203C2.44022 45.2033 4.23214 45.9449 6.7619 45.9449H13.5079C15.5458 45.9449 17.1796 45.3269 18.4093 44.0911C19.6391 42.8552 20.254 41.2132 20.254 39.1652C20.254 37.4703 20.3945 35.2104 20.6756 32.3855H24.7865C26.8243 32.3855 28.6514 31.75 30.2676 30.4788C31.8838 29.2076 32.973 27.5833 33.5352 25.6059H35.9596C39.5434 25.6059 42.1083 24.1228 43.6543 21.1567H48.3976C49.1003 21.1567 49.4516 20.7683 49.4516 19.9915C49.4516 19.2146 49.1003 18.8262 48.3976 18.8262H44.8137C44.8137 18.6144 44.8489 18.2436 44.9191 17.7139C44.9894 17.1843 45.0246 16.8135 45.0246 16.6016H53.9841V0.817749H51.7706C50.2246 0.817749 49.4516 1.55927 49.4516 3.04233ZM20.254 8.02114V20.6271C18.9188 20.2033 17.8296 19.4088 16.9864 18.2436C16.1431 17.0783 15.7215 15.7895 15.7215 14.3771C15.7215 12.894 16.1431 11.5699 16.9864 10.4046C17.8296 9.23936 18.9188 8.44487 20.254 8.02114ZM13.5079 41.4957H6.7619C5.70783 41.4957 5.04026 41.3192 4.75917 40.9661C4.61863 40.6836 4.54836 40.1539 4.54836 39.3771C5.39161 33.0918 6.79704 27.2302 8.76463 21.7923C9.46734 20.0268 10.4511 18.685 11.716 17.7669C12.5593 20.6624 14.4215 22.8516 17.3026 24.3347C16.2485 30.9731 15.7215 35.9166 15.7215 39.1652C15.7215 40.7189 14.9836 41.4957 13.5079 41.4957ZM24.7865 27.9364H21.4134C21.6945 26.6652 21.8351 25.8884 21.8351 25.6059H28.5811C27.8784 27.1596 26.6135 27.9364 24.7865 27.9364ZM35.9596 21.1567H24.7865V7.59741H40.4921V9.82199H30.373C29.6 9.82199 29.2135 10.2104 29.2135 10.9872C29.2135 11.6935 29.6 12.0466 30.373 12.0466H40.4921V14.3771H30.373C29.6 14.3771 29.2135 14.7302 29.2135 15.4364C29.2135 16.2132 29.6 16.6016 30.373 16.6016H40.4921C40.4921 17.8022 40.0529 18.8615 39.1745 19.7796C38.2961 20.6977 37.2244 21.1567 35.9596 21.1567ZM49.4516 12.0466H45.0246V7.59741H49.4516V12.0466Z" fill="white"/>
</g>
<defs>
<clipPath id="clip0_28_38">
<rect width="53.9683" height="50" fill="white" transform="translate(0.0158691 0.5)"/>
</clipPath>
</defs>
</svg>
