<svg width="50" height="51" viewBox="0 0 50 51" fill="none" xmlns="http://www.w3.org/2000/svg">
<path d="M34.8313 41.65L33.4979 30.975C33.309 29.463 32.5741 28.072 31.4316 27.0638C30.2891 26.0555 28.8176 25.4994 27.2938 25.5H22.7021C21.179 25.5004 19.7085 26.057 18.5669 27.0652C17.4252 28.0733 16.691 29.4637 16.5021 30.975L15.1667 41.65C15.0934 42.2365 15.1457 42.8319 15.3202 43.3966C15.4946 43.9613 15.7872 44.4824 16.1786 44.9254C16.5699 45.3683 17.051 45.7229 17.5899 45.9657C18.1288 46.2084 18.7131 46.3338 19.3042 46.3333H30.6958C31.2867 46.3335 31.8709 46.2079 32.4095 45.965C32.9481 45.7222 33.429 45.3675 33.8201 44.9246C34.2112 44.4817 34.5036 43.9606 34.6779 43.3961C34.8523 42.8315 34.9045 42.2363 34.8313 41.65V41.65Z" stroke="white" stroke-width="3" stroke-linecap="round" stroke-linejoin="round"/>
<path d="M25 17.1667C28.4518 17.1667 31.25 14.3685 31.25 10.9167C31.25 7.46491 28.4518 4.66669 25 4.66669C21.5482 4.66669 18.75 7.46491 18.75 10.9167C18.75 14.3685 21.5482 17.1667 25 17.1667Z" stroke="white" stroke-width="3"/>
<path d="M8.33341 23.4167C10.6346 23.4167 12.5001 21.5512 12.5001 19.25C12.5001 16.9489 10.6346 15.0834 8.33341 15.0834C6.03223 15.0834 4.16675 16.9489 4.16675 19.25C4.16675 21.5512 6.03223 23.4167 8.33341 23.4167Z" stroke="white" stroke-width="3"/>
<path d="M41.6667 23.4167C43.9679 23.4167 45.8333 21.5512 45.8333 19.25C45.8333 16.9489 43.9679 15.0834 41.6667 15.0834C39.3655 15.0834 37.5 16.9489 37.5 19.25C37.5 21.5512 39.3655 23.4167 41.6667 23.4167Z" stroke="white" stroke-width="3"/>
<path d="M41.6667 29.6667H42.3042C43.2906 29.6666 44.2449 30.0163 44.9976 30.6538C45.7503 31.2913 46.2524 32.175 46.4146 33.1479L47.1084 37.3146C47.208 37.9116 47.1763 38.5231 47.0155 39.1065C46.8548 39.69 46.5689 40.2315 46.1777 40.6933C45.7865 41.1551 45.2994 41.5261 44.7503 41.7805C44.2012 42.035 43.6032 42.1668 42.998 42.1667H35.4167M8.33339 29.6667H7.69589C6.70956 29.6666 5.75517 30.0163 5.00251 30.6538C4.24985 31.2913 3.74772 32.175 3.58547 33.1479L2.89172 37.3146C2.79217 37.9116 2.82385 38.5231 2.98458 39.1065C3.1453 39.69 3.43121 40.2315 3.82241 40.6933C4.21361 41.1551 4.70071 41.5261 5.24983 41.7805C5.79896 42.035 6.39693 42.1668 7.00214 42.1667H14.5834L8.33339 29.6667Z" stroke="white" stroke-width="3" stroke-linecap="round" stroke-linejoin="round"/>
</svg>
