<svg width="50" height="51" viewBox="0 0 50 51" fill="none" xmlns="http://www.w3.org/2000/svg">
<path d="M19.7916 15.0834C21.5208 15.0834 22.9166 16.4792 22.9166 18.2084C22.9166 19.9375 21.5208 21.3334 19.7916 21.3334C18.0625 21.3334 16.6666 19.9375 16.6666 18.2084C16.6666 16.4792 18.0625 15.0834 19.7916 15.0834ZM30.2083 29.6667C31.9375 29.6667 33.3333 31.0625 33.3333 32.7917C33.3333 34.5209 31.9375 35.9167 30.2083 35.9167C28.4791 35.9167 27.0833 34.5209 27.0833 32.7917C27.0833 31.0625 28.4791 29.6667 30.2083 29.6667ZM17.5208 35.9167L14.5833 32.9792L32.4791 15.0834L35.4166 18.0209L17.5208 35.9167ZM38.8541 6.43752L40.125 14.4792L47.4375 18.2084L43.75 25.5L47.4583 32.7917L40.0833 36.5209L38.8125 44.5625L30.7083 43.2917L24.9375 49.0625L19.1458 43.2084L11.1041 44.5417L9.81246 36.4375L2.54163 32.7292L6.24996 25.4375L2.56246 18.2084L9.87496 14.4375L11.1458 6.47919L19.2083 7.79169L25 1.94794L30.75 7.70835L38.8541 6.43752ZM41.875 20.0209L36.4583 17.1667L35.4166 11.1459L29.375 12.0209L25 7.79169L20.625 12.0209L14.5833 11.1459L13.5416 17.1667L8.12496 20.0209L10.8333 25.5L8.12496 30.9792L13.5416 33.8334L14.5833 39.8542L20.625 38.9792L25 43.2084L29.375 38.9792L35.4166 39.8542L36.4583 33.8334L41.875 30.9792L39.1666 25.5L41.875 20.0209Z" fill="white"/>
</svg>
