<svg width="50" height="25" viewBox="0 0 50 25" fill="none" xmlns="http://www.w3.org/2000/svg">
<path d="M25 0.00378418C32.22 0.00378418 39.45 0.903784 46.68 2.70378C47.5657 2.92359 48.3605 3.41485 48.9531 4.10879C49.5457 4.80272 49.9065 5.66461 49.985 6.57378L50 6.94878V14.6838C50.0001 17.3297 48.9832 19.8745 47.1595 21.7916C45.3359 23.7088 42.8451 24.8516 40.2025 24.9838L39.6875 24.9963H33.5125C31.7069 24.9963 29.9738 24.286 28.6875 23.0188L28.35 22.6588L26.7175 20.8038L26.51 20.5963C26.0918 20.2282 25.5536 20.0256 24.9966 20.0265C24.4395 20.0275 23.9019 20.2319 23.485 20.6013L23.285 20.8038L21.6525 22.6588C20.4609 24.0154 18.7834 24.8487 16.9825 24.9788L16.49 24.9963H10.315C7.66882 24.9957 5.12405 23.9782 3.20697 22.1542C1.28988 20.3302 0.147117 17.8392 0.0150001 15.1963L0 14.6813V6.94629C0.000756953 5.9701 0.327972 5.02221 0.929579 4.25344C1.53119 3.48467 2.37262 2.93918 3.32 2.70378C10.4094 0.922384 17.6902 0.0156386 25 0.00378418ZM25 3.75378C18.0875 3.75378 11.1625 4.61628 4.225 6.34128C4.11732 6.36788 4.01865 6.42265 3.93913 6.49997C3.85961 6.57729 3.8021 6.67439 3.7725 6.78129L3.75 6.94629V14.6813C3.75048 16.3503 4.38659 17.9564 5.52901 19.1731C6.67142 20.3898 8.23435 21.1258 9.9 21.2313L10.3125 21.2463H16.4875C17.275 21.2463 18.03 20.9488 18.6025 20.4213L18.8375 20.1838L20.4675 18.3288C20.9906 17.7334 21.6259 17.2468 22.3371 16.8969C23.0483 16.5471 23.8214 16.3407 24.6123 16.2896C25.4033 16.2385 26.1965 16.3438 26.9468 16.5993C27.6971 16.8548 28.3896 17.2556 28.985 17.7788L29.2675 18.0438L29.5325 18.3263L31.165 20.1838C31.685 20.7738 32.4025 21.1438 33.1775 21.2263L33.5125 21.2463H39.6875C41.3567 21.2464 42.9631 20.6105 44.18 19.468C45.3968 18.3254 46.1326 16.7621 46.2375 15.0963L46.25 14.6838V6.94629C46.2496 6.80692 46.2027 6.67168 46.1166 6.56206C46.0305 6.45244 45.9103 6.37473 45.775 6.34128C38.9816 4.63409 32.0047 3.76512 25 3.75378ZM36.88 7.50378L40.63 7.51378C41.1042 7.51641 41.5598 7.69863 41.9051 8.02375C42.2503 8.34887 42.4595 8.79273 42.4906 9.26595C42.5217 9.73916 42.3723 10.2066 42.0725 10.574C41.7727 10.9415 41.3448 11.1817 40.875 11.2463L40.62 11.2638L36.87 11.2538C36.3958 11.2512 35.9402 11.0689 35.5949 10.7438C35.2497 10.4187 35.0405 9.97484 35.0094 9.50162C34.9783 9.02841 35.1277 8.561 35.4275 8.19355C35.7273 7.82609 36.1552 7.58587 36.625 7.52128L36.88 7.50378ZM13.125 7.50378C13.6001 7.50393 14.0574 7.6844 14.4045 8.00872C14.7516 8.33304 14.9627 8.77703 14.9951 9.25098C15.0274 9.72494 14.8787 10.1935 14.5789 10.562C14.2791 10.9305 13.8506 11.1715 13.38 11.2363L13.125 11.2538H9.3675C8.89244 11.2536 8.43515 11.0732 8.08802 10.7489C7.74089 10.4245 7.52981 9.98054 7.49743 9.50658C7.46505 9.03263 7.61379 8.56405 7.91358 8.19554C8.21337 7.82702 8.64188 7.58604 9.1125 7.52128L9.3675 7.50378H13.125ZM25 6.25378C25.4973 6.25378 25.9742 6.45133 26.3258 6.80296C26.6775 7.15459 26.875 7.6315 26.875 8.12878C26.875 8.62607 26.6775 9.10298 26.3258 9.45461C25.9742 9.80624 25.4973 10.0038 25 10.0038C24.5027 10.0038 24.0258 9.80624 23.6742 9.45461C23.3225 9.10298 23.125 8.62607 23.125 8.12878C23.125 7.6315 23.3225 7.15459 23.6742 6.80296C24.0258 6.45133 24.5027 6.25378 25 6.25378Z" fill="white"/>
</svg>
